{"title":"ONE 34 Prelims 720p WEB-DL x264 -={SPARROW}=-","uid":12805086,"size":1072558176,"categoryP":"video","categoryS":"tv_shows","magnet":"?xt=urn:btih:c0f35222efdaac1ee3d2e0e85025e3ac0f7a5d4c&amp;dn=ONE+34+Prelims+720p+WEB-DL+x264+-%3D%7BSPARROW%7D%3D-&amp;tr=udp%3A%2F%2Ftracker.leechers-paradise.org%3A6969&amp;tr=udp%3A%2F%2Fzer0day.ch%3A1337&amp;tr=udp%3A%2F%2Fopen.demonii.com%3A1337&amp;tr=udp%3A%2F%2Ftracker.coppersurfer.tk%3A6969&amp;tr=udp%3A%2F%2Fexodus.desync.com%3A6969","seeders":0,"leechers":1,"uploader":"CenaCme","files":2,"time":1448115541,"description":"General\r\nComplete name                            : ONE.34.Prelims.720p.WEB-DL.x264.mp4\r\nFormat                                   : MPEG-4\r\nFormat profile                           : Base Media\r\nCodec ID                                 : isom\r\nFile size                                : 1 023 MiB\r\nDuration                                 : 49mn 2s\r\nOverall bit rate mode                    : Variable\r\nOverall bit rate                         : 2 917 Kbps\r\nWriting application                      : Lavf56.27.100\r\n\r\nVideo\r\nID                                       : 1\r\nFormat                                   : AVC\r\nFormat/Info                              : Advanced Video Codec\r\nFormat profile                           :   \r\nFormat settings, CABAC                   : Yes\r\nFormat settings, ReFrames                : 2 frames\r\nFormat settings, GOP                     : M=3, N=50\r\nCodec ID                                 : avc1\r\nCodec ID/Info                            : Advanced Video Coding\r\nDuration                                 : 49mn 2s\r\nBit rate mode                            : Constant\r\nBit rate                                 : 2 800 Kbps\r\nWidth                                    : 1 280 pixels\r\nHeight                                   : 720 pixels\r\nDisplay aspect ratio                     : 16:9\r\nFrame rate mode                          : Variable\r\nFrame rate                               : 25.000 fps\r\nMinimum frame rate                       : 15.385 fps\r\nMaximum frame rate                       : 66.667 fps\r\nStandard                                 : Component\r\nColor space                              : YUV\r\nChroma subsampling                       : 4:2:0\r\nBit depth                                : 8 bits\r\nScan type                                : Progressive\r\nBits/(Pixel*Frame)                       : 0.122\r\nStream size                              : 982 MiB (96%)\r\n\r\nAudio\r\nID                                       : 2\r\nFormat                                   : AAC\r\nFormat/Info                              : Advanced Audio Codec\r\nFormat profile                           : LC\r\nCodec ID                                 : 40\r\nDuration                                 : 49mn 2s\r\nBit rate mode                            : Variable\r\nBit rate                                 : 110 Kbps\r\nMaximum bit rate                         : 115 Kbps\r\nChannel(s)                               : 2 channels\r\nChannel positions                        : Front: L R\r\nSampling rate                            : 44.1 KHz\r\nCompression mode                         : Lossy\r\nStream size                              : 38.5 MiB (4%)\r\n\r\n\r\nThumb sheet:\r\n \nhttp://imgsparrow.co/image/94N","torrent":{"xt":"urn:btih:c0f35222efdaac1ee3d2e0e85025e3ac0f7a5d4c","amp;dn":"ONE+34+Prelims+720p+WEB-DL+x264+-%3D%7BSPARROW%7D%3D-","amp;tr":["udp%3A%2F%2Ftracker.leechers-paradise.org%3A6969","udp%3A%2F%2Fzer0day.ch%3A1337","udp%3A%2F%2Fopen.demonii.com%3A1337","udp%3A%2F%2Ftracker.coppersurfer.tk%3A6969","udp%3A%2F%2Fexodus.desync.com%3A6969"],"infoHash":"c0f35222efdaac1ee3d2e0e85025e3ac0f7a5d4c","infoHashBuffer":{"type":"Buffer","data":[192,243,82,34,239,218,172,30,227,210,224,232,80,37,227,172,15,122,93,76]},"announce":[],"urlList":[]}}